<svg xmlns="http://www.w3.org/2000/svg" width="23.5" height="35.86" viewBox="0 0 23.5 35.86">
  <defs>
    <style>
      .cls-1, .cls-3 {
        fill: #fff;
      }

      .cls-1 {
        stroke: #010101;
        stroke-miterlimit: 10;
      }

      .cls-2 {
        fill: #c42034;
      }
    </style>
  </defs>
  <title>Asset 1</title>
  <g id="Layer_2" data-name="Layer 2">
    <g id="Layer_1-2" data-name="Layer 1">
      <path class="cls-1" d="M11.83,36"/>
      <path class="cls-2" d="M22.34,16.82h0A11.75,11.75,0,1,0,0,11.75,11.69,11.69,0,0,0,1.06,16.6H1l.08.14A11.74,11.74,0,0,0,2,18.32l9.8,17.54,9.92-17.93a11.69,11.69,0,0,0,.57-1Z"/>
    </g>
    <g id="Layer_2-2" data-name="Layer 2">
      <path class="cls-3" d="M8.5,10.17v3.69H5.85v-9H6l4.89,0a6.12,6.12,0,0,1,1,.11A2.22,2.22,0,0,1,13.8,7.41,2.41,2.41,0,0,1,11.88,9.8l-.25.07,2.21,3.32.22-.33c.31-.48.62-1,.94-1.44a.32.32,0,0,1,.22-.13h2.33l.11,0-.14.21c-.63.9-1.26,1.79-1.89,2.68a.27.27,0,0,0,0,.36c.69,1,1.37,2,2,3l.14.22H15.29a.3.3,0,0,1-.31-.18c-.32-.59-.66-1.18-1-1.77l-.14-.23-.66,1a7.85,7.85,0,0,0-.49.76.72.72,0,0,1-.78.43c-.58,0-1.17,0-1.76,0H9.86l.15-.23c.68-1,1.35-2,2-3a.29.29,0,0,0,0-.38c-.8-1.19-1.6-2.37-2.38-3.57a.83.83,0,0,0-.8-.43Zm0-1.61a8.83,8.83,0,0,0,1.87-.1.89.89,0,0,0,.76-.93.82.82,0,0,0-.79-.88c-.6,0-1.2,0-1.8,0l0,0Z"/>
    </g>
  </g>
</svg>
