<!-- Generated by IcoMoon.io -->
<svg version="1.1" xmlns="http://www.w3.org/2000/svg" width="24" height="32" viewBox="0 0 24 32">
<title>custom-AS-pin</title>
<path fill="#0051a0" d="M12.212 32v-14.618c2.852 0 5.17-2.318 5.17-5.259s-2.318-5.259-5.17-5.259v-6.864c-6.774 0-12.212 5.526-12.212 12.301 0 2.763 0.891 5.437 2.585 7.577l9.627 12.123z"></path>
<path fill="#034377" d="M12.123 0v6.864c2.852 0 5.17 2.318 5.17 5.259s-2.318 5.259-5.17 5.259v14.618l9.538-12.123c1.694-2.228 2.585-4.813 2.585-7.577 0.089-6.774-5.348-12.301-12.123-12.301z"></path>
<path fill="#fff" d="M17.025 16.936l-4.813-10.786c0-0.089-0.178-0.089-0.178 0l-4.724 10.786c0 0.089 0 0.178 0.089 0.178h1.694c0 0 0.089 0 0.089-0.089l2.852-6.329c0-0.089 0.178-0.089 0.178 0l2.941 6.329c0 0 0.089 0.089 0.089 0.089h1.694c0 0 0.089-0.089 0.089-0.178z"></path>
<path fill="#fff" d="M17.025 6.329h-1.783c0 0-0.089 0 0 0.089l4.546 10.696c0 0 0 0 0 0h1.783c0 0 0.089 0 0-0.089l-4.546-10.696c0 0 0 0 0 0z"></path>
<path fill="#fff" d="M7.309 6.329l-4.546 10.696c0 0 0 0.089 0 0.089h1.783c0 0 0 0 0 0l4.546-10.696c0 0 0-0.089 0-0.089h-1.783c0 0 0 0 0 0z"></path>
</svg>
